<svg version="1" xmlns="http://www.w3.org/2000/svg" width="3333.333" height="3333.333" viewBox="0 0 2500.000000 2500.000000"><path d="M1254.8 253.5c-.1.1-9.3.6-20.3 1-11 .3-21.6.8-23.5 1-1.9.1-6.6.6-10.5.9-6.9.6-14.7 1.4-19.5 2.1-1.4.2-4.9.7-7.9 1-3 .4-6.3.9-7.5 1.1-1.2.2-3.2.6-4.6.8-1.4.3-4.3.8-6.5 1.1-12.7 1.8-46 9.1-57 12.5-1.6.5-9.1 2.8-16.5 5-13.4 4.1-42.3 14.4-51 18.2-2.5 1.1-5.8 2.6-7.5 3.3-17.4 7.4-44.8 21.2-61.5 31-6.3 3.8-12.4 7.3-13.5 7.9-6.3 3.4-34.1 22.5-47.2 32.2-13.3 9.9-37.8 29.8-42.4 34.3-.9.9-5.2 4.7-9.5 8.6-4.4 3.8-111.8 110.8-238.8 237.7L378.8 884l-4.7-3.8c-2.5-2-4.8-4-5.1-4.3-1.6-1.9-18.7-11.1-25.5-13.8-12.1-4.7-20.3-6.1-33.5-5.7-12.6.4-20.7 2.4-31.5 7.8-14.1 7.1-18.1 10.7-60.5 53.3-36.5 36.7-34.8 34.9-37.2 38.5-1 1.4-3.2 4.5-4.9 7-4.7 6.7-10.7 19.5-13.6 29-2.1 7-2.6 10.6-2.6 21-.2 18.2 3.2 29.4 13.5 45.1 5.5 8.4 19.9 23.2 138.8 141.9 72.9 72.9 134.1 133.8 136 135.5 11.5 9.9 31.5 19.4 47 22.4 7.4 1.3 25.1.6 32.5-1.3 8-2.1 22.6-9.5 30-15.1 3.3-2.5 22.8-21.3 43.3-41.8 29.1-29 38.6-39.1 43.2-46 13.2-19.5 18.8-37.7 17.7-57-1.1-20.2-9.4-37.9-25.8-55.2l-6.9-7.3 6.2-5.8c41.1-38 81-59.4 121.3-64.9 19.3-2.7 47.2 1.9 64.6 10.6 2 1 256.1 254.3 609.5 607.6 428.5 428.5 608.6 608 615.2 613.1 16.7 12.8 37.6 24.5 54.2 30.2 3.6 1.2 7.4 2.6 8.5 3.1 1.1.5 3.1 1.1 4.5 1.3 1.4.3 4.3 1 6.5 1.6 15.2 3.9 28 5.4 46 5.4 14.7 0 25.5-.8 33.3-2.4 2.6-.6 5.8-1.2 7.2-1.4 1.4-.3 2.5-.5 2.5-.6 0-.1.8-.3 1.8-.5 7.4-1.4 26.4-8.5 36.2-13.5 49.2-25.2 81.8-69.3 91.6-124 2.9-16.7 3.2-46.5.5-60.5-.2-1.1-.7-4-1.1-6.5-4.5-28.3-20.6-63-40.9-88-3.3-4.1-278.6-280.1-611.6-613.2L1079.4 820l-3.2-12.7c-3.5-14.4-5.8-24.8-6.7-30.8-.3-2.3-.7-5-.9-6-.2-1.1-.7-4.9-1.1-8.5-.3-3.6-.8-7.2-1-8-2.7-10.3-2.7-72.6-.1-88 .3-1.4.7-4.5 1-7 .3-2.5.8-5.6 1.1-7 .2-1.3.7-4.2 1.1-6.4.3-2.2.7-4.3.9-4.6.2-.3.6-2.1.9-4.1.6-3.7 2.1-10 5.1-20.4 9.4-33.5 28-69 50-95.5 8.1-9.8 31.1-33.1 45-45.7 4.4-3.9 9.6-8.6 11.5-10.3 6.6-6 23.5-19.7 34-27.6 33.9-25.5 65.7-41.7 100-50.9 10.6-2.9 26.6-6.1 34.5-7.1 3.3-.3 6.8-.8 7.7-1 2-.3 14.5-1.5 21.3-2 10.6-.7 42.4-1.5 73.5-1.9 17.9-.2 34.1-.6 36-.9 1.9-.3 5.8-.8 8.5-1.1 2.8-.3 5.8-.8 6.7-1.1.9-.3 2.5-.6 3.5-.9 15.4-2.9 29.3-11.9 32-20.8 2.3-7.6.3-17.2-5.7-27-6.9-11.5-8.6-12.6-35-23-22.7-8.9-57.7-20.2-75.5-24.2-.5-.2-3-.8-5.5-1.5s-5.3-1.4-6.3-1.6c-1-.2-2.6-.5-3.5-.8-.9-.3-2.8-.7-4.2-1-1.4-.2-4.5-.9-7-1.5-2.5-.5-5.7-1.2-7.2-1.5-1.5-.2-6.3-1.1-10.5-2-8.1-1.6-8.6-1.7-24.8-4.2-10.5-1.6-12.8-1.9-21-2.9-5.7-.7-9-1.1-19.5-2-12.8-1.2-17.9-1.5-38-2.1-10.7-.3-20-.7-20.7-.9-.6-.2-1.3-.2-1.5 0z"/></svg>